# xmcd
#
# Track frame offsets: 
#        183
#        18768
#        34608
#        51568
#        66530
#        81750
#        96610
#        111915
#        130968
#        149610
#        167713
#        183953
#        202370
#        217283
#        234383
#        252885
#
# Disc length: 3562 seconds
#
# Revision: 5
# Processed by: cddbd v1.5.2PL0 Copyright (c) Steve Scherf et al.
# Submitted via: ExactAudioCopyFreeDBPlugin 1.0
#
DISCID=fc0de810
DTITLE=Various Artist - Now That's What I Call Music! 13 Disc 2
DYEAR=1988
DGENRE=Pop
TTITLE0=Fat Boys - Chubby Checker - The Twist (Yo, Twist)
TTITLE1=Wee Papa Girl Rappers - Wee Rule
TTITLE2=Salt'N'Pepa - Twist And Shout
TTITLE3=Yello - The Race
TTITLE4=Inner City - Kevin Saunderson - Big Fun
TTITLE5=D-Mob - Gary Haisman - We Call It Acieed
TTITLE6=The Beatmasters - P.P. Arnold - Burn It Up
TTITLE7=Milli Vanilli - Girl You Know It's True
TTITLE8=Level 42 - Heaven In My Hands
TTITLE9=Jane Wiedlin - Rush Hour
TTITLE10=The Proclaimers - I'm Gonna Be (500 Miles)
TTITLE11=T'Pau - Secret Garden
TTITLE12=Transvision Vamp - I Want Your Love
TTITLE13=Duran Duran - I Don't Want Your Love
TTITLE14=Human League - Love Is All That Matters
TTITLE15=All About Eve - Martha's Harbour
EXTD=YEAR: 1988
EXTT0=
EXTT1=
EXTT2=
EXTT3=
EXTT4=
EXTT5=
EXTT6=
EXTT7=
EXTT8=
EXTT9=
EXTT10=
EXTT11=
EXTT12=
EXTT13=
EXTT14=
EXTT15=
PLAYORDER=
